<svg width="24" height="24" viewBox="0 0 24 24" fill="none" xmlns="http://www.w3.org/2000/svg">
<path d="M22.266 5.65083L11.9997 1.53516L1.7334 5.65083V6.87816H22.266V5.65083Z" fill="#FEDFB5"/>
<path d="M11.9997 1.53516L1.7334 5.65083V6.87816H11.9997V1.53516Z" fill="#FFF1D8"/>
<path d="M10.8951 6.87793H7.875V20.2763H10.8951V6.87793Z" fill="#FEDFB5"/>
<path d="M16.1255 6.87793H13.1055V20.2763H16.1255V6.87793Z" fill="#FEDFB5"/>
<path d="M21.355 6.87793H18.335V20.2763H21.355V6.87793Z" fill="#FEDFB5"/>
<path d="M9.38508 6.87793H7.875V20.2763H9.38508V6.87793Z" fill="#FFF1D8"/>
<path d="M14.6155 6.87793H13.1055V20.2763H14.6155V6.87793Z" fill="#FFF1D8"/>
<path d="M19.845 6.87793H18.335V20.2763H19.845V6.87793Z" fill="#FFF1D8"/>
<path d="M5.66459 6.87793H2.64453V20.2763H5.66459V6.87793Z" fill="#FEDFB5"/>
<path d="M4.15461 6.87793H2.64453V20.2763H4.15461V6.87793Z" fill="#FFF1D8"/>
<path d="M23.1358 18.8223H0.864258V21.4843H23.1358V18.8223Z" fill="#FBD698"/>
<path d="M24 20.502H0V22.465H24V20.502Z" fill="#FEDFB5"/>
<path d="M23.1358 5.42285H0.864258V8.33173H23.1358V5.42285Z" fill="#FBD698"/>
<path d="M12.0003 5.42285H0.864258V8.33173H12.0003V5.42285Z" fill="#FEDFB5"/>
<path d="M12.0003 18.8213H0.864258V21.4833H12.0003V18.8213Z" fill="#FEDFB5"/>
<path d="M12 20.502H0V22.465H12V20.502Z" fill="#FFF1D8"/>
</svg>
