<svg width="16" height="16" viewBox="0 0 16 16" fill="none" xmlns="http://www.w3.org/2000/svg">
<path fill-rule="evenodd" clip-rule="evenodd" d="M3.33333 4.66667V0H12V6.66667H15.3333V16H0V4.66667H3.33333ZM3.33333 15.3333V12.6667H2.66667V15.3333H3.33333ZM8.66667 12.6667H6.66667V15.3333H8.66667V12.6667ZM12.6667 12.6667H12V15.3333H12.6667V12.6667ZM14 8H12V12H13.3333V14.6667H14V8ZM10.6667 1.33333H4.66667V14.6667H5.33333V11.3333H10V14.6667H10.6667V1.33333ZM2 14.6667V12H3.33333V6H1.33333V14.6667H2ZM13.3333 10.6667H12.6667V9.33333H13.3333V10.6667ZM2 9.33333H2.66667V10.6667H2V9.33333ZM7.33333 10H6V8.66667H7.33333V10ZM9.33333 10H8V8.66667H9.33333V10ZM2.66667 7.33333V8.66667H2V7.33333H2.66667ZM7.33333 8H6V6.66667H7.33333V8ZM9.33333 8H8V6.66667H9.33333V8ZM7.33333 6H6V4.66667H7.33333V6ZM9.33333 6H8V4.66667H9.33333V6ZM7.33333 4H6V2.66667H7.33333V4ZM9.33333 4H8V2.66667H9.33333V4Z" fill="#596080"/>
</svg>
