<svg width="18" height="22" viewBox="0 0 18 22" fill="none" xmlns="http://www.w3.org/2000/svg">
<path d="M5 8V3.8C5 2.2536 6.2536 1 7.8 1H10.2C11.7464 1 13 2.2536 13 3.8V4.5" stroke="#5B6871" stroke-width="1.5" strokeLinecap="round"/>
<path fill-rule="evenodd" clip-rule="evenodd" d="M9.40538 6.95828C9.13601 6.92732 8.86399 6.92732 8.59462 6.95828L3.39462 7.55598C1.60265 7.76196 0.25 9.27899 0.25 11.0828V17.2621C0.25 18.99 1.49407 20.4669 3.19683 20.7605L8.39683 21.6571C8.796 21.7259 9.204 21.7259 9.60317 21.6571L14.8032 20.7605C16.5059 20.4669 17.75 18.99 17.75 17.2621V11.0828C17.75 9.27899 16.3974 7.76196 14.6054 7.55598L9.40538 6.95828ZM7.13892 13.2222C7.13892 12.1943 7.97216 11.3611 9.00003 11.3611C10.0279 11.3611 10.8611 12.1943 10.8611 13.2222C10.8611 13.9832 10.4044 14.6376 9.75 14.926V16.5556C9.75 16.9698 9.41421 17.3056 9 17.3056C8.58579 17.3056 8.25 16.9698 8.25 16.5556V14.926C7.59567 14.6375 7.13892 13.9832 7.13892 13.2222Z" fill="#5B6871"/>
</svg>
