<svg width="118" height="34" viewBox="0 0 118 34" fill="none" xmlns="http://www.w3.org/2000/svg">
<g clip-path="url(#clip0_3804_9597)">
<path d="M99.4313 14.6988H86.1987C86.3066 15.4893 86.6804 16.2196 87.2585 16.7695C87.8367 17.3194 88.5848 17.656 89.3798 17.7241C90.6952 17.8072 91.881 17.4024 93.0122 16.7615C93.2873 16.6033 93.5493 16.4268 93.7387 16.3075L97.571 20.0567C97.38 20.252 97.1791 20.4373 96.969 20.612C95.5827 21.6444 93.9732 22.3368 92.2702 22.6332C89.66 23.1365 87.1276 22.8926 84.7458 21.6524C83.1025 20.8118 81.7474 19.5001 80.8538 17.885C80.763 17.7293 80.6696 17.5736 80.5762 17.4206C80.5762 17.4024 80.5373 17.3946 80.4594 17.3453C80.362 17.4775 80.2752 17.6172 80.2 17.7631C79.9249 18.3832 79.6447 19.0033 79.4008 19.6364C79.3497 19.8355 79.2254 20.008 79.0528 20.1195C78.8802 20.2311 78.6719 20.2735 78.4693 20.2383C76.7707 20.2055 75.0713 20.2055 73.3709 20.2383C72.8701 20.2383 72.6522 20.0489 72.4706 19.6234C71.0643 16.368 69.6468 13.1135 68.218 9.85982C67.1334 7.36897 66.0454 4.87986 64.9539 2.39248C64.8553 2.16934 64.7645 1.94361 64.6426 1.65301C64.8139 1.61916 64.9872 1.59662 65.1615 1.58555C67.1101 1.58555 69.0534 1.58555 71.0072 1.57257C71.1948 1.54882 71.3847 1.59418 71.5413 1.70018C71.6979 1.80618 71.8106 1.96557 71.8582 2.14858C73.0621 5.26214 74.292 8.33936 75.5167 11.4322C75.6204 11.6916 75.7398 11.9511 75.854 12.2105H76.0122C76.1108 11.9926 76.2172 11.7824 76.3028 11.5619C77.4687 8.54348 78.6328 5.52506 79.7952 2.50664C79.8523 2.35875 79.9146 2.21085 79.9587 2.06036C79.9919 1.90457 80.0836 1.76743 80.2149 1.67718C80.3462 1.58693 80.507 1.55042 80.6644 1.57517C81.6166 1.59593 82.5689 1.57517 83.5185 1.57517C84.4681 1.57517 85.4645 1.57517 86.44 1.57517C86.6346 1.57517 86.8266 1.61149 87.1043 1.64004L86.2662 3.71574C86.9953 3.5886 87.5843 3.45627 88.1836 3.38622C89.8931 3.14527 91.6355 3.31879 93.2639 3.89217C95.5835 4.73024 97.1974 6.33631 98.2171 8.5625C98.8435 9.94855 99.2178 11.4352 99.3224 12.9526C99.3743 13.4923 99.3898 14.0475 99.4313 14.6988ZM86.3103 11.0975H88.4768C89.1748 11.0975 89.8753 11.0975 90.5759 11.0975C91.2853 11.1238 91.9956 11.1099 92.7035 11.0559C92.5948 10.3326 92.2328 9.67141 91.6821 9.19006C91.1314 8.70872 90.4277 8.43851 89.6963 8.42758C88.1655 8.38866 86.6087 9.52511 86.3103 11.0975Z" fill="#0E73F6"/>
<path d="M64.0152 5.61502C62.2223 5.61502 60.4346 5.61502 58.6417 5.61502C57.7491 5.61502 57.8867 5.51124 57.526 6.37265C57.5078 6.41417 57.5001 6.45827 57.4819 6.50238C56.3195 9.52253 55.1554 12.5444 53.9895 15.568C53.9039 15.786 53.7949 15.9961 53.6963 16.2115C53.6418 16.2115 53.59 16.2115 53.5381 16.2115C53.4239 15.952 53.302 15.6926 53.1982 15.4331C51.9873 12.3818 50.7765 9.33053 49.5657 6.27925C49.3062 5.63318 49.3062 5.63059 48.6524 5.63059C46.7497 5.63059 44.8469 5.63059 42.9442 5.63059C42.7704 5.63059 42.5991 5.65653 42.3708 5.6747C42.8897 7.13028 43.6214 8.44057 44.0547 9.8728C43.8317 9.61356 43.6287 9.33773 43.4476 9.04771C42.272 7.2406 40.4385 5.96272 38.3361 5.48529C36.8112 5.11808 35.226 5.07652 33.684 5.36334C29.9114 6.0587 27.3349 8.17332 26.0921 11.8499C26.0246 12.0523 25.9468 12.2573 25.8741 12.4596C25.773 12.0641 25.7319 11.6557 25.7522 11.248C25.7859 9.06965 25.1021 6.94075 23.8062 5.1895C21.3154 1.79832 17.9034 0.150735 13.7287 0.0287877C11.8061 -0.0282941 9.87826 0.0287877 7.95305 0.0287877C6.48708 0.0158145 5.00555 0.000246757 3.5318 0.0287877C1.58064 0.0677071 -0.0747288 1.76459 0.000515434 3.70537C0.0206434 4.57637 0.345573 5.41273 0.918743 6.06886C1.49191 6.725 2.27703 7.15936 3.13742 7.29634C3.51942 7.34442 3.9048 7.36004 4.28944 7.34304C7.21358 7.34304 10.1377 7.34304 13.0593 7.34304C14.6161 7.34304 16.0665 7.73483 17.234 8.84793C17.5681 9.13875 17.8399 9.49419 18.033 9.89284C18.2261 10.2915 18.3364 10.7251 18.3575 11.1675C18.3938 12.387 17.8178 13.2951 16.9123 14.0216C15.8665 14.8377 14.5723 15.27 13.2461 15.2463C11.8839 15.267 10.5269 15.2463 9.16474 15.2463C8.61853 15.2352 8.07731 15.3522 7.58442 15.5879C7.09152 15.8235 6.66062 16.1712 6.32622 16.6033C6.21502 16.7585 6.06975 16.8862 5.90154 16.9766C5.73333 17.067 5.54666 17.1177 5.35583 17.1248C4.63774 17.1899 3.94316 17.4141 3.32243 17.7809C2.7017 18.1478 2.17038 18.6482 1.76699 19.2458C1.3636 19.8434 1.09825 20.5233 0.990177 21.2362C0.882104 21.9491 0.934017 22.6771 1.14215 23.3675C1.36833 24.2175 1.8288 24.9868 2.47105 25.5878C3.11331 26.1887 3.9115 26.5971 4.77463 26.7664C6.66092 27.1997 8.25922 26.6159 9.5695 25.2096C9.73556 25.0332 9.88605 24.8438 10.0884 24.6207C10.4854 24.9554 10.8305 25.2408 11.1704 25.534L13.9674 27.9755C13.7391 27.6564 13.4796 27.3035 13.189 26.9065C10.5139 23.2974 14.5642 22.3919 15.8589 22.1324C16.5387 21.9975 18.4224 21.4734 20.057 21.0167L20.0129 20.9726C20.8665 20.285 21.6786 19.6753 22.4389 19.0059C23.2259 18.3159 23.8763 17.4841 24.3563 16.554C24.8129 15.664 25.1814 14.7377 25.5887 13.814C25.6624 14.2756 25.6954 14.7427 25.6873 15.21C25.6981 17.5953 26.6338 19.8834 28.2975 21.5927C30.0515 23.409 32.2336 24.3586 34.7374 24.5921C37.4684 24.8751 40.2143 24.218 42.5213 22.7292C42.8829 22.4707 43.2294 22.1918 43.5591 21.8937C42.2618 20.6198 41.0112 19.4132 39.7398 18.1782C39.5788 18.2946 39.4097 18.3996 39.2339 18.4922C38.5278 18.8464 37.8008 19.1574 37.057 19.4236C35.9621 19.7609 34.8567 19.7298 33.8474 19.0915C33.3963 18.8087 33.0089 18.4352 32.7097 17.9949C32.4104 17.5545 32.2059 17.0568 32.109 16.5332C32.5294 16.5099 32.8615 16.4761 33.1936 16.4761C36.9766 16.4761 40.7604 16.4761 44.5451 16.4761C45.3235 16.4761 45.4039 16.4242 45.3416 15.7496C45.243 14.6936 45.0822 13.6428 44.9343 12.5894C44.8824 12.2209 44.7682 11.8577 44.6748 11.4893L44.802 11.4374C44.9161 11.6683 45.0355 11.894 45.1367 12.1301C46.8102 15.9442 48.4863 19.7557 50.1365 23.5776C50.1995 23.7911 50.3364 23.9753 50.5228 24.097C50.7092 24.2187 50.9328 24.2701 51.1536 24.2419C52.8064 24.2081 54.4618 24.2133 56.1171 24.2419C56.3267 24.2689 56.5391 24.2203 56.7161 24.1047C56.893 23.9891 57.0229 23.8142 57.0823 23.6114C59.5593 17.8271 62.0484 12.0471 64.5497 6.27146C64.6275 6.09762 64.669 5.90562 64.7598 5.62799L64.0152 5.61502ZM32.3244 12.854C32.493 11.401 34.1121 10.1686 35.7726 10.2283C37.3087 10.2828 38.6605 11.4996 38.7098 12.9033C37.6719 13.0434 32.8096 12.9993 32.3244 12.854Z" fill="#0E73F6"/>
<path d="M23.1603 33.9742C22.4947 34.0514 21.8202 33.9856 21.1821 33.7811C20.544 33.5766 19.957 33.2382 19.4603 32.7884C17.6302 31.1832 15.7984 29.5815 13.9649 27.9832C13.7366 27.664 13.4771 27.3112 13.1865 26.9142C10.514 23.2973 14.5643 22.3918 15.859 22.1323C16.5388 21.9974 18.4225 21.4733 20.0571 21.0166C20.1868 21.1437 20.3347 21.2968 20.4982 21.4395C22.1847 22.9167 23.8738 24.3913 25.5655 25.8634C26.3998 26.5745 26.9619 27.5529 27.156 28.6318C27.6438 31.1356 25.7237 33.7303 23.1603 33.9742Z" fill="#0E73F6"/>
<path d="M87.0942 1.64268C86.8741 1.60874 86.6524 1.58623 86.4299 1.57522C85.4544 1.57522 84.4814 1.57522 83.5058 1.57522C82.5302 1.57522 81.6039 1.57522 80.6517 1.57522C80.4943 1.55047 80.3335 1.58698 80.2022 1.67723C80.0709 1.76749 79.9792 1.90462 79.946 2.06042C79.8996 2.21204 79.8451 2.36102 79.7825 2.50669C78.6201 5.51819 77.4534 8.53315 76.2824 11.5516C76.1967 11.7721 76.0904 11.9849 75.9918 12.2002H75.8335C75.7193 11.9408 75.6 11.6813 75.4962 11.4218C74.2715 8.32904 73.0417 5.23884 71.8378 2.13826C71.7913 1.95626 71.6807 1.79718 71.5262 1.69037C71.3717 1.58355 71.1838 1.53621 70.9971 1.55706C69.0485 1.58041 67.1052 1.55706 65.1488 1.57263C64.9745 1.5837 64.8012 1.60623 64.6299 1.64009C64.7518 1.93069 64.8426 2.15901 64.9412 2.37956C66.031 4.86694 67.119 7.35519 68.2053 9.8443C69.6271 13.0997 71.0447 16.3568 72.4579 19.6157C72.6421 20.0412 72.8575 20.2462 73.3582 20.2332C75.0586 20.2003 76.7572 20.2003 78.4541 20.2332C78.6536 20.261 78.8564 20.2142 79.0236 20.1017C79.1907 19.9891 79.3103 19.8188 79.3596 19.6235C79.6035 18.9904 79.8785 18.3728 80.1587 17.7501C80.2096 17.6462 80.2713 17.5479 80.3429 17.4569L86.2431 3.70541L87.0942 1.64268Z" fill="#0E73F6"/>
<path d="M97.0003 3.71819H97.7087C99.7039 3.71819 101.697 3.73116 103.692 3.71819C103.88 3.70051 104.07 3.73734 104.237 3.82428C104.405 3.91123 104.545 4.04463 104.639 4.20857C105.246 5.13745 105.892 6.04038 106.525 6.95369C106.665 7.15347 106.816 7.34288 107.013 7.60234C107.205 7.34288 107.358 7.15866 107.496 6.96147C108.155 6.01184 108.811 5.06047 109.465 4.10738C109.527 3.98869 109.622 3.8897 109.737 3.82143C109.853 3.75317 109.985 3.71832 110.119 3.72078C112.249 3.73635 114.379 3.72078 116.509 3.72078C116.606 3.73584 116.702 3.75839 116.795 3.78824L110.568 12.7631L117.174 22.3632C117.002 22.392 116.829 22.4119 116.655 22.4229C114.579 22.4229 112.532 22.4229 110.469 22.4229C110.292 22.4349 110.114 22.3961 109.958 22.3111C109.802 22.2261 109.673 22.0984 109.587 21.9428C108.858 20.8505 108.1 19.7763 107.353 18.697C107.226 18.5128 107.093 18.3363 106.894 18.0769C106.715 18.3026 106.562 18.479 106.427 18.671C105.643 19.7833 104.865 20.8972 104.091 22.0129C104.034 22.1342 103.943 22.2369 103.83 22.3089C103.716 22.381 103.585 22.4196 103.451 22.4203C101.253 22.4047 99.0579 22.4203 96.7383 22.4203C97.0808 21.8079 97.4674 21.3227 97.8125 20.8142C98.1575 20.3056 98.5623 19.7348 98.9385 19.1977L100.023 17.641C100.386 17.122 100.752 16.6031 101.113 16.0842L102.229 14.4599L103.331 12.8772L97.0003 3.71819Z" fill="#0E73F6"/>
<path d="M5.88791 26.9531C8.64351 26.9531 10.8774 24.7192 10.8774 21.9636C10.8774 19.208 8.64351 16.9741 5.88791 16.9741C3.1323 16.9741 0.898438 19.208 0.898438 21.9636C0.898438 24.7192 3.1323 26.9531 5.88791 26.9531Z" fill="#0E73F6"/>
<path d="M61.2754 28.3413V26.1592H62.1083C62.2924 26.1503 62.4744 26.2013 62.6272 26.3045C62.6889 26.3557 62.7379 26.4206 62.7703 26.494C62.8027 26.5674 62.8177 26.6473 62.814 26.7274C62.8187 26.8542 62.7741 26.9779 62.6895 27.0725C62.5978 27.1679 62.4776 27.2307 62.347 27.2515V27.2074C62.4889 27.2173 62.6233 27.2749 62.7284 27.3709C62.7756 27.4211 62.8122 27.4803 62.8363 27.5449C62.8603 27.6095 62.8713 27.6782 62.8685 27.7471C62.8748 27.8304 62.8608 27.9141 62.8279 27.9909C62.7949 28.0677 62.7438 28.1354 62.6791 28.1882C62.521 28.2995 62.3297 28.3535 62.1368 28.3413H61.2754ZM61.4622 27.1555H62.0875C62.232 27.1648 62.3757 27.1275 62.4975 27.0491C62.5432 27.0117 62.5796 26.964 62.6034 26.9099C62.6273 26.8558 62.6381 26.7968 62.635 26.7378C62.6386 26.6787 62.6279 26.6196 62.604 26.5654C62.5801 26.5113 62.5436 26.4636 62.4975 26.4264C62.3762 26.3468 62.2321 26.3094 62.0875 26.3201H61.4622V27.1555ZM61.4622 28.1778H62.1368C62.2776 28.1844 62.4172 28.1501 62.539 28.0792C62.5905 28.0421 62.6315 27.9922 62.6579 27.9344C62.6843 27.8766 62.6951 27.813 62.6895 27.7497C62.6956 27.6856 62.6849 27.6211 62.6585 27.5624C62.6321 27.5038 62.5909 27.4529 62.539 27.415C62.4172 27.3441 62.2776 27.3099 62.1368 27.3164H61.4622V28.1778Z" fill="#0E73F6"/>
<path d="M63.8829 28.3671C63.8077 28.3725 63.7321 28.3621 63.6611 28.3367C63.59 28.3112 63.5251 28.2712 63.4704 28.2192C63.367 28.0915 63.3168 27.9289 63.3303 27.7651V26.7896H63.5171V27.7625C63.5071 27.8853 63.5411 28.0076 63.6131 28.1076C63.6518 28.1456 63.6983 28.1748 63.7493 28.1932C63.8004 28.2115 63.8548 28.2186 63.9089 28.214C63.9745 28.217 64.04 28.2058 64.1009 28.1812C64.1618 28.1565 64.2167 28.1191 64.2617 28.0713C64.3086 28.02 64.3447 27.9598 64.3679 27.8943C64.3911 27.8288 64.4009 27.7593 64.3967 27.6899V26.7999H64.5861V28.3567H64.3993V27.9909H64.4408C64.4038 28.1085 64.329 28.2106 64.228 28.2815C64.1244 28.3446 64.004 28.3744 63.8829 28.3671Z" fill="#0E73F6"/>
<path d="M65.686 28.3675C65.5583 28.3697 65.4326 28.3365 65.3227 28.2715C65.2179 28.204 65.135 28.1076 65.084 27.9939C64.9733 27.7183 64.9733 27.4106 65.084 27.1351C65.135 27.0221 65.218 26.9265 65.3227 26.86C65.4318 26.793 65.5579 26.7587 65.686 26.7614C65.8174 26.7593 65.9462 26.7983 66.0544 26.873C66.1578 26.9454 66.2322 27.052 66.2646 27.174H66.2256V26.0635H66.4228V28.3416H66.2386V27.9524H66.2723C66.2408 28.0754 66.1662 28.1831 66.0622 28.2559C65.9518 28.3322 65.82 28.3713 65.686 28.3675ZM65.7093 28.204C65.7807 28.2069 65.8517 28.1936 65.9173 28.1653C65.9828 28.1371 66.0412 28.0944 66.0881 28.0406C66.1827 27.8998 66.2332 27.7341 66.2332 27.5645C66.2332 27.3949 66.1827 27.2291 66.0881 27.0884C66.0414 27.0342 65.9831 26.9912 65.9175 26.9624C65.852 26.9337 65.7808 26.92 65.7093 26.9223C65.6382 26.92 65.5674 26.9337 65.5023 26.9625C65.4372 26.9912 65.3793 27.0342 65.3331 27.0884C65.2417 27.2303 65.1931 27.3956 65.1931 27.5645C65.1931 27.7333 65.2417 27.8986 65.3331 28.0406C65.3795 28.0944 65.4374 28.137 65.5025 28.1653C65.5677 28.1936 65.6383 28.2068 65.7093 28.204Z" fill="#0E73F6"/>
<path d="M67.598 29.0317C67.4751 29.0323 67.3527 29.0149 67.2348 28.9798C67.125 28.9455 67.0222 28.8919 66.9312 28.8216L67.0013 28.6763C67.0604 28.7199 67.1238 28.7573 67.1907 28.7878C67.2519 28.8163 67.3164 28.8372 67.3827 28.8501C67.4527 28.8641 67.524 28.871 67.5954 28.8709C67.66 28.8754 67.7249 28.8668 67.786 28.8453C67.8472 28.8239 67.9033 28.7902 67.9509 28.7463C68.0358 28.6459 68.0794 28.517 68.0728 28.3857V27.8927H68.1066C68.0768 28.0158 68.0029 28.1238 67.899 28.1963C67.7902 28.2716 67.6603 28.3107 67.528 28.3078C67.3977 28.3116 67.269 28.2783 67.1569 28.2118C67.053 28.1506 66.9691 28.0605 66.9156 27.9524C66.8592 27.8231 66.8301 27.6835 66.8301 27.5424C66.8301 27.4013 66.8592 27.2618 66.9156 27.1325C66.9691 27.0243 67.053 26.9342 67.1569 26.873C67.2695 26.8076 67.3978 26.7744 67.528 26.777C67.6602 26.7753 67.7897 26.8143 67.899 26.8886C68.0035 26.9617 68.0773 27.0706 68.1066 27.1947L68.0728 27.161L68.0988 26.8055H68.2856C68.2856 26.8652 68.27 26.9249 68.2674 26.982C68.2648 27.0391 68.2674 27.0961 68.2674 27.1532V28.3727C68.2748 28.4636 68.2637 28.5551 68.2347 28.6417C68.2057 28.7282 68.1595 28.8079 68.0988 28.876C68.0304 28.9349 67.9507 28.9791 67.8646 29.0058C67.7784 29.0326 67.6877 29.0414 67.598 29.0317ZM67.5487 28.147C67.6203 28.1501 67.6916 28.1373 67.7576 28.1095C67.8235 28.0817 67.8825 28.0395 67.9301 27.9861C68.032 27.8585 68.0828 27.6976 68.0728 27.5346C68.0832 27.3724 68.0323 27.2122 67.9301 27.0858C67.883 27.0316 67.8242 26.9887 67.7581 26.9604C67.6921 26.9321 67.6205 26.9191 67.5487 26.9223C67.4766 26.9193 67.4047 26.9323 67.3383 26.9606C67.2718 26.9889 67.2125 27.0317 67.1647 27.0858C67.0626 27.2122 67.0117 27.3724 67.022 27.5346C67.012 27.6976 67.0629 27.8585 67.1647 27.9861C67.213 28.0394 67.2724 28.0815 67.3388 28.1093C67.4052 28.1371 67.4768 28.15 67.5487 28.147Z" fill="#0E73F6"/>
<path d="M69.4376 28.3671C69.3345 28.3721 69.2316 28.3558 69.1352 28.3192C69.0387 28.2826 68.9509 28.2265 68.8771 28.1544C68.8062 28.0753 68.7516 27.9831 68.7165 27.8829C68.6813 27.7827 68.6662 27.6766 68.6722 27.5706C68.6686 27.4227 68.6997 27.2761 68.763 27.1425C68.8218 27.0246 68.9132 26.926 69.0264 26.8585C69.1395 26.7909 69.2695 26.7571 69.4012 26.7611C69.5231 26.7578 69.6434 26.7883 69.7489 26.8493C69.8467 26.9118 69.9235 27.0022 69.9695 27.1087C70.0242 27.2301 70.0508 27.3623 70.0473 27.4953V27.581H68.8097V27.446H69.9305L69.8761 27.485C69.8853 27.3378 69.8431 27.1919 69.7567 27.0724C69.7127 27.0207 69.6571 26.9801 69.5944 26.9539C69.5318 26.9278 69.4638 26.9168 69.396 26.9219C69.3213 26.9179 69.2466 26.9316 69.1781 26.9618C69.1096 26.992 69.0492 27.0379 69.0017 27.0958C68.9008 27.2289 68.8503 27.3934 68.859 27.5602V27.581C68.8523 27.6655 68.8624 27.7505 68.8886 27.831C68.9149 27.9116 68.9569 27.9863 69.012 28.0506C69.0678 28.1064 69.1348 28.1496 69.2087 28.1774C69.2825 28.2051 69.3615 28.2167 69.4402 28.2115C69.5283 28.2118 69.616 28.1978 69.6996 28.1699C69.7887 28.1368 69.87 28.0855 69.9383 28.0195L70.0136 28.1596C69.9412 28.2325 69.8521 28.2868 69.7541 28.3178C69.652 28.3515 69.5451 28.3681 69.4376 28.3671Z" fill="#0E73F6"/>
<path d="M70.953 28.3671C70.8943 28.3709 70.8356 28.3617 70.7808 28.3402C70.7261 28.3186 70.6768 28.2853 70.6365 28.2425C70.5555 28.1326 70.5168 27.9972 70.5275 27.8611V26.9426H70.2188V26.7895H70.5275V26.3562L70.7169 26.2939V26.7895H71.1736V26.9426H70.7169V27.8326C70.7096 27.9306 70.7303 28.0287 70.7766 28.1154C70.8003 28.1449 70.8309 28.1682 70.8658 28.1832C70.9006 28.1981 70.9386 28.2042 70.9764 28.201C71.0125 28.2067 71.0493 28.2067 71.0854 28.201C71.1138 28.195 71.1416 28.1864 71.1684 28.1751V28.3411C71.1376 28.3538 71.1054 28.3625 71.0724 28.3671C71.0327 28.371 70.9927 28.371 70.953 28.3671Z" fill="#0E73F6"/>
<path d="M72.3154 28.3413V26.1592H72.4841L73.3948 28.2141H73.304L74.2173 26.1592H74.3808V28.3413H74.2069V26.3849H74.2925L73.4285 28.3413H73.291L72.4192 26.3849H72.5048V28.3413H72.3154Z" fill="#0E73F6"/>
<path d="M75.5043 28.3674C75.3759 28.3697 75.2493 28.3365 75.1385 28.2714C75.0344 28.2032 74.9516 28.107 74.8998 27.9938C74.8417 27.8578 74.8134 27.711 74.8168 27.5631C74.8129 27.4158 74.8421 27.2695 74.9024 27.135C74.9544 27.0218 75.0382 26.9262 75.1437 26.86C75.2518 26.793 75.3771 26.7587 75.5043 26.7614C75.6366 26.7589 75.7664 26.7979 75.8754 26.8729C75.9783 26.9459 76.0512 27.0538 76.0803 27.1765H76.044L76.0751 26.7899H76.2568L76.2412 26.9663C76.2412 27.0234 76.2412 27.0805 76.2412 27.1376V28.3415H76.0518V27.9549H76.0855C76.0558 28.0767 75.983 28.1836 75.8805 28.2559C75.77 28.3317 75.6383 28.3707 75.5043 28.3674ZM75.5303 28.204C75.6013 28.2074 75.6722 28.1944 75.7374 28.166C75.8026 28.1377 75.8605 28.0948 75.9065 28.0405C75.9979 27.8985 76.0465 27.7333 76.0465 27.5644C76.0465 27.3956 75.9979 27.2303 75.9065 27.0883C75.8606 27.0337 75.8029 26.9904 75.7376 26.9616C75.6724 26.9328 75.6015 26.9194 75.5303 26.9222C75.4587 26.9194 75.3873 26.9328 75.3217 26.9616C75.2561 26.9904 75.1979 27.0337 75.1515 27.0883C75.0585 27.2297 75.0089 27.3952 75.0089 27.5644C75.0089 27.7336 75.0585 27.8991 75.1515 28.0405C75.1991 28.0963 75.2591 28.1401 75.3266 28.1684C75.3942 28.1968 75.4675 28.209 75.5407 28.204H75.5303Z" fill="#0E73F6"/>
<path d="M76.7574 28.3414V27.1375C76.7574 27.0804 76.7574 27.0233 76.7574 26.9662C76.7574 26.9092 76.7574 26.8495 76.7393 26.7898H76.9261L76.952 27.1453H76.9157C76.9564 27.0295 77.0339 26.9302 77.1362 26.8625C77.241 26.7939 77.364 26.7586 77.4891 26.7613C77.5648 26.7556 77.6408 26.7659 77.7123 26.7914C77.7838 26.8168 77.8492 26.857 77.9042 26.9092C77.9568 26.9717 77.9964 27.044 78.0209 27.1219C78.0454 27.1999 78.0542 27.2819 78.0469 27.3632V28.3414H77.8394V27.3788C77.8493 27.256 77.8153 27.1337 77.7434 27.0337C77.7043 26.9955 77.6573 26.9662 77.6058 26.9478C77.5543 26.9295 77.4995 26.9225 77.445 26.9273C77.3766 26.9237 77.3082 26.9346 77.2443 26.9592C77.1804 26.9837 77.1223 27.0215 77.074 27.07C77.0261 27.1209 76.9891 27.1809 76.965 27.2464C76.9409 27.312 76.9303 27.3817 76.9339 27.4514V28.3414H76.7574Z" fill="#0E73F6"/>
<path d="M79.1362 28.3674C79.0077 28.3697 78.8811 28.3365 78.7703 28.2714C78.6655 28.2039 78.5826 28.1075 78.5316 27.9938C78.4736 27.8578 78.4453 27.7109 78.4486 27.5631C78.4447 27.4158 78.4739 27.2694 78.5342 27.135C78.5861 27.0225 78.6689 26.9272 78.7729 26.8599C78.8822 26.7933 79.0082 26.7591 79.1362 26.7613C79.2684 26.7594 79.398 26.7983 79.5072 26.8729C79.6101 26.9458 79.683 27.0537 79.7122 27.1765H79.6758L79.707 26.7899H79.8886C79.8886 26.8496 79.8756 26.9092 79.8704 26.9663C79.8652 27.0234 79.8704 27.0805 79.8704 27.1376V28.3415H79.6836V27.9549H79.7174C79.687 28.077 79.6132 28.184 79.5098 28.2558C79.4004 28.3321 79.2694 28.3712 79.1362 28.3674ZM79.1621 28.2039C79.2331 28.2069 79.3038 28.1938 79.369 28.1655C79.4342 28.1372 79.4921 28.0944 79.5383 28.0405C79.6297 27.8985 79.6783 27.7332 79.6783 27.5644C79.6783 27.3955 79.6297 27.2302 79.5383 27.0883C79.4922 27.034 79.4344 26.9909 79.3692 26.9621C79.3041 26.9334 79.2333 26.9197 79.1621 26.9222C79.0902 26.9197 79.0186 26.9333 78.9526 26.962C78.8866 26.9908 78.8279 27.0339 78.7807 27.0883C78.6893 27.2302 78.6407 27.3955 78.6407 27.5644C78.6407 27.7332 78.6893 27.8985 78.7807 28.0405C78.8277 28.0942 78.8861 28.1367 78.9516 28.165C79.0172 28.1933 79.0882 28.2066 79.1595 28.2039H79.1621Z" fill="#0E73F6"/>
<path d="M81.0433 29.0317C80.9204 29.0323 80.798 29.0149 80.6801 28.9798C80.5711 28.9455 80.4692 28.8919 80.3791 28.8216L80.4466 28.6763C80.5057 28.7199 80.5691 28.7573 80.636 28.7878C80.6972 28.8163 80.7617 28.8372 80.828 28.8501C80.8981 28.8639 80.9693 28.8709 81.0407 28.8709C81.1054 28.8758 81.1703 28.8672 81.2315 28.8458C81.2927 28.8244 81.3488 28.7905 81.3962 28.7463C81.4811 28.6459 81.5247 28.517 81.5182 28.3857V27.8927H81.5519C81.5221 28.0158 81.4482 28.1238 81.3443 28.1963C81.2357 28.272 81.1057 28.311 80.9733 28.3078C80.843 28.3116 80.7143 28.2783 80.6023 28.2118C80.4983 28.1506 80.4144 28.0605 80.361 27.9524C80.3045 27.8231 80.2754 27.6835 80.2754 27.5424C80.2754 27.4013 80.3045 27.2618 80.361 27.1325C80.4144 27.0243 80.4983 26.9342 80.6023 26.873C80.7148 26.8076 80.8431 26.7744 80.9733 26.777C81.1055 26.775 81.2351 26.814 81.3443 26.8886C81.4488 26.9617 81.5227 27.0706 81.5519 27.1947L81.5182 27.161L81.5467 26.8055H81.7309C81.7309 26.8652 81.7179 26.9249 81.7128 26.982C81.7076 27.0391 81.7128 27.0961 81.7128 27.1532V28.3727C81.7195 28.4636 81.7081 28.5549 81.6792 28.6414C81.6502 28.7278 81.6043 28.8076 81.5441 28.876C81.4754 28.9344 81.3956 28.9782 81.3096 29.005C81.2236 29.0317 81.133 29.0408 81.0433 29.0317ZM80.994 28.147C81.0659 28.15 81.1376 28.1371 81.204 28.1093C81.2703 28.0815 81.3298 28.0394 81.3781 27.9861C81.4779 27.8575 81.5277 27.6971 81.5182 27.5346C81.5282 27.3729 81.4784 27.2131 81.3781 27.0858C81.3283 27.0323 81.268 26.9897 81.2011 26.9606C81.1341 26.9314 81.0619 26.9164 80.9889 26.9164C80.9158 26.9164 80.8436 26.9314 80.7766 26.9606C80.7097 26.9897 80.6494 27.0323 80.5997 27.0858C80.4986 27.2128 80.4479 27.3726 80.457 27.5346C80.4482 27.6974 80.4989 27.8579 80.5997 27.9861C80.6491 28.0408 80.7102 28.0837 80.7785 28.1116C80.8468 28.1394 80.9204 28.1515 80.994 28.147Z" fill="#0E73F6"/>
<path d="M82.8829 28.3675C82.7803 28.3724 82.6777 28.3561 82.5817 28.3195C82.4857 28.2829 82.3983 28.2268 82.3251 28.1547C82.2533 28.0762 82.198 27.984 82.1624 27.8838C82.1267 27.7835 82.1115 27.6772 82.1175 27.571C82.1135 27.4228 82.1456 27.2759 82.2109 27.1428C82.269 27.0266 82.359 26.9294 82.4704 26.8626C82.5854 26.7936 82.7176 26.7585 82.8518 26.7614C82.9744 26.7584 83.0955 26.7889 83.202 26.8496C83.2984 26.913 83.3742 27.0032 83.42 27.1091C83.4747 27.2305 83.5013 27.3626 83.4978 27.4957V27.5813H82.2498V27.4464H83.3707L83.3188 27.4853C83.3273 27.3378 83.2842 27.1919 83.1969 27.0728C83.1533 27.0212 83.0981 26.9808 83.0359 26.9546C82.9736 26.9284 82.9061 26.9174 82.8388 26.9223C82.7636 26.9179 82.6884 26.9314 82.6194 26.9616C82.5504 26.9918 82.4896 27.0379 82.4418 27.0961C82.341 27.2293 82.2904 27.3938 82.2991 27.5606V27.5813C82.2871 27.7518 82.342 27.9203 82.4522 28.051C82.5079 28.1068 82.575 28.15 82.6488 28.1778C82.7227 28.2055 82.8016 28.2171 82.8803 28.2118C82.9685 28.2122 83.0561 28.1981 83.1398 28.1703C83.2292 28.1378 83.3106 28.0864 83.3785 28.0198L83.4563 28.1599C83.383 28.2317 83.2943 28.2859 83.1969 28.3182C83.0955 28.3511 82.9895 28.3677 82.8829 28.3675Z" fill="#0E73F6"/>
<path d="M83.9 28.3415V27.1376C83.9 27.0805 83.9 27.0234 83.9 26.9664C83.9 26.9093 83.9 26.8496 83.8818 26.7899H84.0661L84.092 27.1454H84.0557C84.0861 27.0322 84.1539 26.9326 84.2482 26.8629C84.3424 26.7931 84.4574 26.7574 84.5746 26.7614C84.6895 26.7568 84.8027 26.7906 84.8963 26.8574C84.9858 26.9332 85.044 27.0395 85.0598 27.1558H85.0131C85.0482 27.0407 85.1202 26.9404 85.2181 26.8703C85.3197 26.7966 85.4428 26.7584 85.5683 26.7614C85.6393 26.7566 85.7104 26.7673 85.7767 26.7928C85.843 26.8184 85.903 26.8581 85.9523 26.9093C86.0493 27.0398 86.0954 27.2012 86.0821 27.3633V28.3415H85.8927V27.3763C85.9024 27.2562 85.8733 27.1361 85.8096 27.0338C85.7757 26.996 85.7334 26.9666 85.6861 26.9482C85.6388 26.9297 85.5878 26.9226 85.5372 26.9274C85.4746 26.9243 85.4121 26.9355 85.3546 26.9602C85.297 26.9849 85.2459 27.0225 85.2051 27.0701C85.1182 27.1776 85.0747 27.3136 85.0831 27.4515V28.3415H84.8937V27.3763C84.9034 27.2562 84.8743 27.1361 84.8107 27.0338C84.7783 26.9976 84.7381 26.9693 84.6932 26.9509C84.6482 26.9324 84.5997 26.9244 84.5512 26.9274C84.4883 26.9246 84.4256 26.936 84.3677 26.9607C84.3097 26.9854 84.2581 27.0228 84.2165 27.0701C84.1307 27.1781 84.0874 27.3138 84.0946 27.4515V28.3415H83.9Z" fill="#0E73F6"/>
<path d="M87.255 28.3671C87.1523 28.3722 87.0497 28.356 86.9537 28.3193C86.8577 28.2827 86.7703 28.2265 86.6971 28.1544C86.6254 28.0758 86.5701 27.9837 86.5345 27.8834C86.4988 27.7832 86.4835 27.6768 86.4896 27.5706C86.486 27.4227 86.5171 27.2761 86.5804 27.1425C86.6393 27.0246 86.7306 26.926 86.8438 26.8585C86.9569 26.7909 87.0869 26.7571 87.2186 26.7611C87.3405 26.7578 87.4608 26.7883 87.5663 26.8493C87.6641 26.9118 87.7409 27.0022 87.7869 27.1087C87.8416 27.2301 87.8682 27.3623 87.8647 27.4953V27.581H86.6271V27.446H87.748L87.6935 27.485C87.7027 27.3378 87.6605 27.1919 87.5741 27.0724C87.5301 27.0207 87.4745 26.9801 87.4118 26.9539C87.3492 26.9278 87.2812 26.9168 87.2135 26.9219C87.1387 26.9179 87.064 26.9316 86.9955 26.9618C86.927 26.992 86.8666 27.0379 86.8191 27.0958C86.7182 27.2289 86.6677 27.3934 86.6764 27.5602V27.581C86.6697 27.6655 86.6798 27.7505 86.7061 27.831C86.7323 27.9116 86.7743 27.9863 86.8295 28.0506C86.8852 28.1064 86.9522 28.1496 87.0261 28.1774C87.0999 28.2051 87.1789 28.2167 87.2576 28.2115C87.3457 28.2118 87.4334 28.1978 87.517 28.1699C87.6064 28.1374 87.6878 28.0861 87.7557 28.0195L87.831 28.1596C87.7586 28.2325 87.6695 28.2868 87.5715 28.3178C87.4694 28.3515 87.3625 28.3681 87.255 28.3671Z" fill="#0E73F6"/>
<path d="M88.2701 28.3413V27.1374C88.2701 27.0803 88.2701 27.0232 88.2701 26.9662C88.2701 26.9091 88.2701 26.8494 88.252 26.7897H88.4362L88.4647 27.1452H88.4284C88.4682 27.0289 88.5459 26.9294 88.6489 26.8624C88.7536 26.7938 88.8767 26.7585 89.0018 26.7612C89.0775 26.7557 89.1534 26.7661 89.2249 26.7915C89.2964 26.817 89.3618 26.857 89.4169 26.9091C89.5211 27.0364 89.5714 27.1993 89.5571 27.3631V28.3413H89.3702V27.3787C89.3802 27.2559 89.3462 27.1336 89.2742 27.0336C89.2351 26.9954 89.1882 26.9661 89.1367 26.9477C89.0852 26.9294 89.0303 26.9224 88.9759 26.9272C88.9071 26.9238 88.8383 26.9347 88.774 26.9592C88.7097 26.9838 88.6512 27.0215 88.6022 27.0699C88.5549 27.121 88.5183 27.1811 88.4947 27.2467C88.4711 27.3122 88.4609 27.3818 88.4647 27.4514V28.3413H88.2701Z" fill="#0E73F6"/>
<path d="M90.5533 28.3671C90.4946 28.3709 90.4358 28.3617 90.3811 28.3402C90.3264 28.3186 90.2771 28.2853 90.2367 28.2425C90.1558 28.1326 90.1171 27.9972 90.1278 27.8611V26.9426H89.8164V26.7895H90.1278V26.3562L90.3172 26.2939V26.7895H90.7738V26.9426H90.3172V27.8326C90.3087 27.9307 90.3294 28.0291 90.3768 28.1154C90.4006 28.1449 90.4312 28.1682 90.466 28.1832C90.5009 28.1981 90.5389 28.2042 90.5766 28.201C90.6127 28.2067 90.6495 28.2067 90.6856 28.201C90.714 28.1947 90.7417 28.186 90.7686 28.1751V28.3411C90.7379 28.3538 90.7056 28.3625 90.6726 28.3671C90.6329 28.3709 90.593 28.3709 90.5533 28.3671Z" fill="#0E73F6"/>
<path d="M92.6135 28.3675C92.4567 28.3703 92.3006 28.3466 92.1517 28.2974C92.0204 28.2542 91.8982 28.1874 91.791 28.1002L91.8714 27.942C91.94 27.9955 92.0129 28.0433 92.0894 28.0847C92.1635 28.1219 92.2419 28.1498 92.3229 28.1677C92.4179 28.185 92.5143 28.1937 92.6109 28.1936C92.764 28.2042 92.9163 28.1641 93.0442 28.0795C93.0911 28.0455 93.1288 28.0005 93.1541 27.9484C93.1795 27.8964 93.1916 27.8389 93.1895 27.7811C93.1928 27.7352 93.1857 27.6892 93.1686 27.6465C93.1515 27.6038 93.125 27.5655 93.0909 27.5346C92.9856 27.4624 92.8647 27.4162 92.7381 27.3997L92.4215 27.3348C92.2578 27.31 92.1038 27.2419 91.9752 27.1376C91.9254 27.09 91.8864 27.0322 91.8609 26.9682C91.8353 26.9042 91.8239 26.8354 91.8273 26.7666C91.8241 26.647 91.8596 26.5296 91.9285 26.4319C91.9968 26.3332 92.0924 26.2566 92.2036 26.2113C92.3324 26.1572 92.4712 26.1307 92.6109 26.1335C92.7549 26.1316 92.8981 26.1553 93.0338 26.2036C93.1565 26.2471 93.2682 26.317 93.3608 26.4085L93.2829 26.5642C93.1946 26.4793 93.0906 26.4123 92.9768 26.367C92.8593 26.3258 92.7354 26.3056 92.6109 26.3073C92.4594 26.2994 92.3097 26.3423 92.1854 26.4293C92.1344 26.4674 92.0933 26.5172 92.0658 26.5746C92.0382 26.632 92.025 26.6952 92.0271 26.7588C92.024 26.8068 92.0315 26.8549 92.049 26.8997C92.0664 26.9446 92.0935 26.985 92.1283 27.0183C92.2218 27.0934 92.3339 27.1418 92.4527 27.1584L92.7718 27.2232C92.9415 27.2483 93.1027 27.3142 93.2414 27.4152C93.2913 27.4595 93.3306 27.5144 93.3562 27.576C93.3818 27.6376 93.3931 27.7041 93.3893 27.7707C93.3916 27.8821 93.3579 27.9913 93.2933 28.0821C93.2288 28.1756 93.1387 28.2485 93.0338 28.2922C92.9005 28.3462 92.7573 28.3718 92.6135 28.3675Z" fill="#0E73F6"/>
<path d="M93.7004 29.0443L93.6537 28.8808C93.737 28.8624 93.8179 28.8345 93.895 28.7978C93.9576 28.7683 94.0134 28.7258 94.0584 28.6733C94.1044 28.6143 94.1427 28.5498 94.1726 28.4812L94.253 28.2944V28.3775L93.5732 26.7896H93.7834L94.375 28.2244H94.2971L94.8835 26.7896H95.0885L94.3698 28.489C94.3363 28.5735 94.2927 28.6537 94.2401 28.7277C94.1974 28.7864 94.1467 28.8388 94.0896 28.8834C94.0373 28.9275 93.9776 28.9618 93.9131 28.9846C93.8444 29.0115 93.7731 29.0315 93.7004 29.0443Z" fill="#0E73F6"/>
<path d="M95.8692 28.3671C95.7545 28.3682 95.6405 28.3498 95.5319 28.3126C95.4363 28.2828 95.3479 28.2333 95.2725 28.1673L95.3477 28.0272C95.425 28.0892 95.5129 28.1367 95.6072 28.1673C95.6968 28.1965 95.7905 28.2114 95.8848 28.2114C95.9904 28.2176 96.0955 28.1914 96.1858 28.1362C96.2179 28.1139 96.2439 28.0839 96.2616 28.0491C96.2792 28.0142 96.2879 27.9755 96.287 27.9364C96.2884 27.9065 96.2833 27.8766 96.2721 27.8489C96.2609 27.8211 96.2439 27.7961 96.2221 27.7755C96.1601 27.7254 96.0857 27.6931 96.0067 27.6821L95.7265 27.6225C95.6158 27.6024 95.5132 27.5511 95.4307 27.4746C95.3982 27.4399 95.3729 27.3991 95.3565 27.3546C95.34 27.31 95.3326 27.2626 95.3347 27.2151C95.3335 27.1315 95.357 27.0494 95.4022 26.979C95.4529 26.9081 95.522 26.8525 95.602 26.8181C95.6995 26.7767 95.8048 26.7564 95.9107 26.7584C96.0153 26.7573 96.1192 26.7758 96.2169 26.8129C96.3046 26.8456 96.3836 26.8979 96.4478 26.966L96.3674 27.1035C96.3081 27.0436 96.2376 26.996 96.1598 26.9634C96.0814 26.9323 95.9977 26.9164 95.9133 26.9167C95.81 26.9086 95.7071 26.937 95.6227 26.9972C95.591 27.0216 95.5653 27.053 95.5478 27.0891C95.5302 27.1251 95.5212 27.1647 95.5215 27.2047C95.5202 27.2348 95.5251 27.2648 95.5358 27.2929C95.5465 27.321 95.5628 27.3466 95.5838 27.3682C95.639 27.4165 95.7063 27.4488 95.7784 27.4616L96.0586 27.5239C96.1734 27.5426 96.2809 27.5919 96.37 27.6666C96.4054 27.6995 96.4331 27.7398 96.451 27.7846C96.4689 27.8295 96.4767 27.8778 96.4738 27.926C96.4751 28.0108 96.4487 28.0937 96.3985 28.1621C96.3457 28.2323 96.2736 28.2855 96.191 28.3152C96.0883 28.354 95.9789 28.3717 95.8692 28.3671Z" fill="#0E73F6"/>
<path d="M97.3824 28.3671C97.3237 28.3709 97.2649 28.3617 97.2102 28.3402C97.1555 28.3186 97.1062 28.2853 97.0658 28.2425C96.984 28.1329 96.9443 27.9975 96.9543 27.8611V26.9426H96.6455V26.7895H96.9543V26.3562L97.1437 26.2939V26.7895H97.6029V26.9426H97.1437V27.8326C97.1358 27.9309 97.1575 28.0294 97.2059 28.1154C97.2291 28.1449 97.2593 28.1682 97.2937 28.1832C97.3281 28.1981 97.3657 28.2042 97.4031 28.201C97.4401 28.2065 97.4777 28.2065 97.5147 28.201C97.5423 28.1951 97.5693 28.1864 97.5951 28.1751V28.3411C97.5646 28.3545 97.5322 28.3632 97.4991 28.3671C97.4603 28.3709 97.4212 28.3709 97.3824 28.3671Z" fill="#0E73F6"/>
<path d="M98.5755 28.3676C98.4725 28.3725 98.3695 28.3562 98.2731 28.3196C98.1767 28.283 98.0888 28.2269 98.0151 28.1548C97.9437 28.0761 97.8888 27.9839 97.8536 27.8836C97.8184 27.7834 97.8036 27.6771 97.8101 27.571C97.8065 27.4232 97.8376 27.2766 97.9009 27.1429C97.959 27.0267 98.049 26.9295 98.1604 26.8627C98.2756 26.7941 98.4077 26.7591 98.5418 26.7615C98.6644 26.7581 98.7856 26.7886 98.892 26.8497C98.9898 26.9122 99.0666 27.0026 99.1126 27.1092C99.1673 27.2305 99.1939 27.3627 99.1904 27.4958V27.5814H97.9502V27.4465H99.0711L99.0192 27.4854C99.0277 27.3379 98.9846 27.192 98.8972 27.0728C98.8536 27.0213 98.7985 26.9808 98.7363 26.9547C98.674 26.9285 98.6065 26.9174 98.5392 26.9224C98.4641 26.9186 98.3891 26.9323 98.3202 26.9625C98.2513 26.9927 98.1904 27.0384 98.1422 27.0962C98.0425 27.2299 97.9921 27.394 97.9995 27.5606V27.5814C97.9874 27.7519 98.0424 27.9204 98.1526 28.051C98.209 28.1066 98.2765 28.1497 98.3508 28.1774C98.425 28.2051 98.5042 28.2169 98.5833 28.2119C98.6715 28.2125 98.7592 28.1985 98.8428 28.1704C98.9324 28.1384 99.0139 28.087 99.0815 28.0199L99.1593 28.16C99.0869 28.2329 98.9978 28.2873 98.8998 28.3183C98.7951 28.3523 98.6856 28.369 98.5755 28.3676Z" fill="#0E73F6"/>
<path d="M99.5901 28.3412V27.1373C99.5901 27.0802 99.5901 27.0231 99.5901 26.966C99.5901 26.9089 99.5771 26.8493 99.5693 26.7896H99.7561L99.7847 27.1451H99.7458C99.7795 27.0321 99.8486 26.9329 99.943 26.8622C100.039 26.793 100.154 26.7575 100.272 26.761C100.387 26.7565 100.501 26.7903 100.594 26.857C100.684 26.9333 100.743 27.0392 100.76 27.1554H100.714C100.746 27.0397 100.817 26.9389 100.916 26.87C101.018 26.7972 101.141 26.759 101.266 26.761C101.337 26.7559 101.408 26.7664 101.475 26.792C101.541 26.8176 101.601 26.8575 101.65 26.9089C101.749 27.0388 101.795 27.2008 101.78 27.363V28.3412H101.593V27.376C101.603 27.2555 101.573 27.135 101.508 27.0335C101.474 26.9951 101.432 26.9655 101.384 26.9469C101.337 26.9284 101.286 26.9216 101.235 26.9271C101.173 26.9239 101.11 26.9351 101.052 26.9599C100.995 26.9846 100.944 27.0222 100.903 27.0698C100.817 27.1778 100.774 27.3135 100.781 27.4512V28.3412H100.592V27.376C100.601 27.2559 100.572 27.1358 100.509 27.0335C100.476 26.9972 100.436 26.9687 100.391 26.9503C100.346 26.9318 100.298 26.9239 100.249 26.9271C100.187 26.9239 100.124 26.9351 100.066 26.9599C100.009 26.9846 99.9578 27.0222 99.917 27.0698C99.8301 27.1772 99.7866 27.3133 99.7951 27.4512V28.3412H99.5901Z" fill="#0E73F6"/>
<path d="M103.482 28.3414L102.922 26.7847H103.127L103.625 28.2247H103.539L104.058 26.7847H104.25L104.756 28.2247H104.676L105.182 26.7847H105.376L104.813 28.3414H104.619L104.1 26.8833H104.209L103.69 28.3414H103.482Z" fill="#0E73F6"/>
<path d="M105.711 26.4083V26.1748H105.97V26.4083H105.711ZM105.742 28.3413V26.7845H105.931V28.3413H105.742Z" fill="#0E73F6"/>
<path d="M106.949 28.3671C106.89 28.3709 106.831 28.3617 106.777 28.3402C106.722 28.3186 106.673 28.2853 106.632 28.2425C106.551 28.1326 106.513 27.9972 106.523 27.8611V26.9426H106.212V26.7895H106.523V26.3562L106.71 26.2939V26.7895H107.159V26.9426H106.7V27.8326C106.692 27.9309 106.714 28.0294 106.762 28.1154C106.786 28.1449 106.816 28.1682 106.851 28.1832C106.886 28.1981 106.924 28.2042 106.962 28.201C106.998 28.2067 107.035 28.2067 107.071 28.201C107.099 28.1947 107.127 28.186 107.154 28.1751V28.3411C107.123 28.3538 107.091 28.3625 107.058 28.3671C107.021 28.3701 106.985 28.3701 106.949 28.3671Z" fill="#0E73F6"/>
<path d="M107.49 28.3416V26.0635H107.677V27.1506H107.641C107.677 27.0316 107.754 26.9294 107.859 26.8626C107.966 26.794 108.092 26.7588 108.219 26.7614C108.295 26.7544 108.372 26.7643 108.444 26.7903C108.515 26.8163 108.581 26.8579 108.634 26.9119C108.734 27.0383 108.782 27.1977 108.769 27.3582V28.3416H108.58V27.3712C108.59 27.2508 108.558 27.1305 108.489 27.0313C108.45 26.9937 108.403 26.9649 108.351 26.947C108.3 26.9291 108.245 26.9225 108.191 26.9275C108.122 26.924 108.053 26.9349 107.989 26.9595C107.925 26.984 107.866 27.0218 107.817 27.0702C107.77 27.1205 107.733 27.1796 107.709 27.2442C107.685 27.3088 107.674 27.3775 107.677 27.4464V28.3416H107.49Z" fill="#0E73F6"/>
<path d="M110.737 28.3671C110.634 28.3721 110.531 28.3558 110.434 28.3192C110.338 28.2826 110.25 28.2265 110.176 28.1544C110.105 28.0756 110.05 27.9834 110.015 27.8832C109.98 27.7829 109.965 27.6766 109.971 27.5706C109.968 27.4227 109.999 27.2761 110.062 27.1424C110.12 27.0264 110.21 26.9293 110.321 26.8622C110.436 26.7934 110.567 26.7583 110.7 26.761C110.823 26.7574 110.944 26.7879 111.051 26.8493C111.148 26.9118 111.225 27.0021 111.271 27.1087C111.326 27.2301 111.352 27.3622 111.349 27.4953V27.5809H110.109V27.446H111.23L111.178 27.4849C111.187 27.3377 111.145 27.1919 111.058 27.0724C111.014 27.0211 110.958 26.9809 110.896 26.9547C110.833 26.9286 110.765 26.9174 110.698 26.9219C110.623 26.9181 110.548 26.9319 110.479 26.962C110.41 26.9922 110.349 27.038 110.301 27.0957C110.201 27.2295 110.151 27.3936 110.158 27.5602V27.5809C110.152 27.6656 110.162 27.7507 110.189 27.8312C110.216 27.9118 110.258 27.9864 110.314 28.0506C110.369 28.1064 110.436 28.1496 110.51 28.1774C110.584 28.2051 110.663 28.2167 110.742 28.2114C110.83 28.2121 110.918 28.198 111.001 28.1699C111.091 28.138 111.172 28.0866 111.24 28.0194L111.318 28.1595C111.245 28.2325 111.156 28.2868 111.058 28.3178C110.955 28.3516 110.846 28.3682 110.737 28.3671Z" fill="#0E73F6"/>
<path d="M112.348 28.3675C112.22 28.3697 112.093 28.3365 111.982 28.2715C111.877 28.204 111.795 28.1075 111.744 27.9938C111.685 27.8578 111.657 27.711 111.661 27.5631C111.657 27.4158 111.686 27.2695 111.746 27.135C111.796 27.0215 111.88 26.9257 111.985 26.86C112.094 26.7929 112.22 26.7587 112.348 26.7614C112.48 26.7589 112.608 26.7979 112.717 26.8729C112.819 26.9464 112.893 27.054 112.924 27.1765H112.867L112.898 26.7899H113.082C113.082 26.8496 113.069 26.9093 113.064 26.9664C113.059 27.0234 113.064 27.0805 113.064 27.1376V28.3415H112.867V27.9549H112.901C112.872 28.0773 112.799 28.1847 112.696 28.2559C112.594 28.327 112.473 28.3658 112.348 28.3675ZM112.371 28.204C112.443 28.2074 112.514 28.1944 112.58 28.1661C112.645 28.1378 112.704 28.0948 112.75 28.0405C112.842 27.8986 112.89 27.7333 112.89 27.5644C112.89 27.3956 112.842 27.2303 112.75 27.0883C112.702 27.0365 112.643 26.9951 112.578 26.9669C112.513 26.9386 112.442 26.924 112.371 26.924C112.3 26.924 112.23 26.9386 112.165 26.9669C112.1 26.9951 112.041 27.0365 111.993 27.0883C111.901 27.2303 111.853 27.3956 111.853 27.5644C111.853 27.7333 111.901 27.8986 111.993 28.0405C112.039 28.0935 112.096 28.1356 112.16 28.1639C112.224 28.1921 112.294 28.2058 112.364 28.204H112.371Z" fill="#0E73F6"/>
<path d="M114.084 28.3671C113.969 28.3682 113.855 28.3497 113.747 28.3126C113.651 28.2828 113.563 28.2333 113.487 28.1673L113.563 28.0272C113.639 28.09 113.727 28.1375 113.822 28.1673C113.912 28.1964 114.005 28.2113 114.1 28.2114C114.205 28.2176 114.31 28.1913 114.401 28.1362C114.433 28.1138 114.459 28.0839 114.476 28.049C114.494 28.0142 114.503 27.9754 114.502 27.9364C114.503 27.9065 114.498 27.8766 114.487 27.8488C114.476 27.8211 114.459 27.7961 114.437 27.7755C114.374 27.7255 114.299 27.6933 114.219 27.6821L113.941 27.6224C113.831 27.6024 113.728 27.5511 113.646 27.4745C113.613 27.4399 113.588 27.3991 113.571 27.3545C113.555 27.31 113.547 27.2625 113.55 27.2151C113.547 27.1313 113.571 27.0488 113.617 26.979C113.668 26.9081 113.737 26.8525 113.817 26.8181C113.914 26.777 114.018 26.7566 114.123 26.7584C114.228 26.7572 114.333 26.7757 114.432 26.8129C114.519 26.8455 114.598 26.8979 114.663 26.966L114.582 27.1035C114.523 27.0435 114.452 26.9959 114.375 26.9634C114.296 26.9322 114.213 26.9164 114.128 26.9167C114.025 26.9085 113.922 26.937 113.838 26.9971C113.806 27.0216 113.78 27.053 113.763 27.089C113.745 27.125 113.736 27.1646 113.736 27.2047C113.735 27.2347 113.74 27.2647 113.751 27.2929C113.761 27.321 113.778 27.3466 113.799 27.3681C113.854 27.4164 113.921 27.4487 113.993 27.4616L114.273 27.5238C114.388 27.5425 114.496 27.5918 114.585 27.6665C114.62 27.6994 114.648 27.7397 114.666 27.7846C114.684 27.8295 114.692 27.8778 114.689 27.926C114.69 28.0108 114.664 28.0937 114.613 28.1621C114.561 28.2322 114.488 28.2854 114.406 28.3152C114.303 28.354 114.194 28.3716 114.084 28.3671Z" fill="#0E73F6"/>
<path d="M115.775 28.3675C115.673 28.3721 115.57 28.3556 115.474 28.319C115.379 28.2824 115.291 28.2265 115.218 28.1547C115.146 28.0762 115.091 27.984 115.055 27.8838C115.019 27.7835 115.004 27.6772 115.01 27.571C115.006 27.4228 115.038 27.2759 115.103 27.1428C115.162 27.0266 115.252 26.9294 115.363 26.8626C115.478 26.7936 115.61 26.7585 115.744 26.7614C115.867 26.7584 115.988 26.7889 116.095 26.8496C116.192 26.9123 116.268 27.0027 116.313 27.1091C116.367 27.2305 116.394 27.3626 116.39 27.4957V27.5813H115.153V27.4464H116.274L116.222 27.4853C116.23 27.3378 116.187 27.1919 116.1 27.0728C116.056 27.0212 116.001 26.9808 115.939 26.9546C115.877 26.9284 115.809 26.9174 115.742 26.9223C115.667 26.9183 115.592 26.932 115.523 26.9622C115.454 26.9923 115.393 27.0382 115.345 27.0961C115.244 27.2293 115.193 27.3938 115.202 27.5606V27.5813C115.19 27.7518 115.245 27.9203 115.355 28.051C115.411 28.1064 115.478 28.1493 115.552 28.177C115.626 28.2048 115.705 28.2166 115.783 28.2118C115.871 28.2122 115.959 28.1981 116.043 28.1703C116.132 28.1378 116.214 28.0864 116.281 28.0198L116.359 28.1599C116.286 28.2317 116.197 28.2859 116.1 28.3182C115.995 28.3522 115.886 28.3688 115.775 28.3675Z" fill="#0E73F6"/>
<path d="M116.743 28.3413V28.0818H117.003V28.3413H116.743ZM116.816 27.8068L116.756 26.1592H116.992L116.935 27.8068H116.816Z" fill="#0E73F6"/>
</g>
<defs>
<clipPath id="clip0_3804_9597">
<rect width="117.163" height="34" fill="white"/>
</clipPath>
</defs>
</svg>
