<svg width="20" height="16" viewBox="0 0 20 16" fill="none" xmlns="http://www.w3.org/2000/svg">
<path d="M19.1552 0.0304001C18.86 0.00960009 18.572 0 18.2888 0C12.152 0 8.6584 4.6784 7.3872 8.4432L10.76 11.8152C14.6336 10.428 19.2 7.064 19.2 0.9928C19.2 0.6792 19.1808 0.3584 19.1552 0.0304001ZM11.1088 10.1464L9.052 8.0896C9.9232 6.0496 12.4 1.7072 17.756 1.44C17.5768 5.5592 14.8728 8.5248 11.1088 10.1464ZM15.0128 11.2432C14.6224 11.5096 14.2344 11.7496 13.8512 11.964C13.7176 12.5992 13.3784 13.2784 12.8872 13.8568C12.8864 13.4456 12.7712 13.0312 12.5704 12.6168C12.2176 12.7768 11.8824 12.9152 11.5616 13.036C12.0328 14.2552 11.5528 15.1552 10.9088 16C11.8336 15.9304 12.804 15.4776 13.568 14.7128C14.3936 13.888 14.972 12.6984 15.0128 11.2432ZM6.5792 6.6272C6.1656 6.428 5.7536 6.3152 5.3432 6.3136C5.916 5.828 6.588 5.4904 7.2176 5.3536C7.4416 4.9592 7.6936 4.5704 7.9584 4.188C6.5032 4.2272 5.3128 4.8072 4.4864 5.632C3.7224 6.396 3.2704 7.3672 3.2 8.2912C4.0448 7.6464 4.9464 7.1664 6.1648 7.6392C6.2888 7.3032 6.4256 6.9656 6.5792 6.6272ZM12.1 7.1C11.82 6.8216 11.82 6.3696 12.1 6.0912C12.3784 5.8128 12.8296 5.8128 13.1088 6.0912C13.388 6.3704 13.388 6.8224 13.1088 7.1008C12.8296 7.38 12.3784 7.38 12.1 7.1ZM15.6312 3.5688C15.0744 3.012 14.1704 3.012 13.6136 3.5688C13.056 4.1256 13.056 5.0304 13.6136 5.5872C14.1704 6.1448 15.0744 6.1448 15.632 5.5872C16.188 5.0304 16.188 4.1256 15.6312 3.5688ZM14.2688 4.9312C14.0744 4.736 14.0744 4.4192 14.2688 4.2248C14.4624 4.0296 14.7808 4.0296 14.9768 4.2248C15.1704 4.4192 15.1696 4.736 14.9768 4.9312C14.7808 5.1256 14.4632 5.1256 14.2688 4.9312ZM9.0752 12.1504C7.688 13.6256 6.1504 14.38 4.4992 14.38C1.9392 14.38 0 12.4968 0 10.1312C0 8.9432 0.4888 7.6336 1.6344 6.38C-0.9264 10.4896 2.5352 14.4824 6.9896 10.0656L7.6016 10.6776C6.8736 11.5264 6.2728 12.2592 5.2248 12.788C6.3 12.8336 7.5208 12.192 8.4384 11.5136L9.0752 12.1504Z" fill="#596080"/>
</svg>
