<svg width="61" height="61" viewBox="0 0 61 61" fill="none" xmlns="http://www.w3.org/2000/svg">
<path fill-rule="evenodd" clip-rule="evenodd" d="M30.4997 27.957C32.5219 27.957 34.4614 27.1537 35.8914 25.7237C37.3213 24.2938 38.1247 22.3543 38.1247 20.332C38.1247 18.3098 37.3213 16.3703 35.8914 14.9403C34.4614 13.5104 32.5219 12.707 30.4997 12.707C28.4774 12.707 26.5379 13.5104 25.108 14.9403C23.678 16.3703 22.8747 18.3098 22.8747 20.332C22.8747 22.3543 23.678 24.2938 25.108 25.7237C26.5379 27.1537 28.4774 27.957 30.4997 27.957ZM12.708 50.832C12.708 48.4956 13.1682 46.182 14.0623 44.0235C14.9564 41.8649 16.267 39.9035 17.9191 38.2514C19.5712 36.5993 21.5325 35.2888 23.6911 34.3947C25.8497 33.5006 28.1632 33.0404 30.4997 33.0404C32.8361 33.0404 35.1497 33.5006 37.3083 34.3947C39.4668 35.2888 41.4282 36.5993 43.0803 38.2514C44.7324 39.9035 46.0429 41.8649 46.937 44.0235C47.8311 46.182 48.2913 48.4956 48.2913 50.832H12.708Z" fill="#5B6871"/>
</svg>
